<mxfile host="app.diagrams.net" modified="2023-11-02T14:35:34.252Z" agent="Mozilla/5.0 (Macintosh; Intel Mac OS X 10_15_7) AppleWebKit/537.36 (KHTML, like Gecko) Chrome/118.0.0.0 Safari/537.36" etag="tKaDTQqNMNtbhfEcuU1I" version="22.0.8" type="github">
  <diagram id="3228e29e-7158-1315-38df-8450db1d8a1d" name="Page-1">
    <mxGraphModel dx="1593" dy="2460" grid="0" gridSize="10" guides="1" tooltips="1" connect="1" arrows="1" fold="1" page="1" pageScale="1" pageWidth="630" pageHeight="550" background="#EFF1F3" math="0" shadow="1">
      <root>
        <mxCell id="0" />
        <mxCell id="1" parent="0" />
        <mxCell id="ijSoyV1o0yViyPh6vLqH-12" value="" style="rounded=1;whiteSpace=wrap;html=1;dashed=1;strokeWidth=5;fillColor=none;" parent="1" vertex="1">
          <mxGeometry x="654" y="-514" width="530" height="137" as="geometry" />
        </mxCell>
        <mxCell id="Zxyhw3o_makbFYxT9f12-17" value="" style="rounded=1;whiteSpace=wrap;html=1;dashed=1;strokeWidth=5;fillColor=none;" parent="1" vertex="1">
          <mxGeometry x="31" y="-364" width="528" height="329" as="geometry" />
        </mxCell>
        <mxCell id="Zxyhw3o_makbFYxT9f12-14" value="" style="rounded=1;whiteSpace=wrap;html=1;strokeColor=none;fontSize=18;labelBackgroundColor=none;fillColor=#E6D7C2;" parent="1" vertex="1">
          <mxGeometry x="94" y="-266" width="400" height="217" as="geometry" />
        </mxCell>
        <mxCell id="pCjDIv-f0e-wGzuPs2K4-11" value="" style="rounded=1;whiteSpace=wrap;html=1;fillColor=#EFF1F3;" parent="1" vertex="1">
          <mxGeometry x="230" y="-182" width="120" height="42" as="geometry" />
        </mxCell>
        <mxCell id="Zxyhw3o_makbFYxT9f12-7" value="" style="rounded=1;whiteSpace=wrap;html=1;dashed=1;strokeWidth=5;fillColor=none;" parent="1" vertex="1">
          <mxGeometry x="31" y="-514" width="530" height="137" as="geometry" />
        </mxCell>
        <mxCell id="Zxyhw3o_makbFYxT9f12-2" value="&lt;font style=&quot;font-size: 18px&quot;&gt;socket&amp;nbsp; send()&lt;/font&gt;" style="rounded=1;whiteSpace=wrap;html=1;strokeColor=none;labelBackgroundColor=none;fillColor=#FDD276;" parent="1" vertex="1">
          <mxGeometry x="53" y="-404" width="483" height="88" as="geometry" />
        </mxCell>
        <mxCell id="Zxyhw3o_makbFYxT9f12-11" value="&lt;font style=&quot;font-size: 24px&quot;&gt;用户态&lt;/font&gt;" style="text;html=1;strokeColor=none;fillColor=none;align=center;verticalAlign=middle;whiteSpace=wrap;rounded=0;dashed=1;" parent="1" vertex="1">
          <mxGeometry x="34" y="-495" width="132.5" height="20" as="geometry" />
        </mxCell>
        <mxCell id="Zxyhw3o_makbFYxT9f12-12" value="&lt;font style=&quot;font-size: 24px&quot;&gt;内核态&lt;/font&gt;" style="text;html=1;strokeColor=none;align=center;verticalAlign=middle;whiteSpace=wrap;rounded=0;dashed=1;labelBackgroundColor=none;" parent="1" vertex="1">
          <mxGeometry x="49.25" y="-298" width="102" height="20" as="geometry" />
        </mxCell>
        <mxCell id="222Te1zxGotTQ1m0-dcR-3" value="" style="aspect=fixed;pointerEvents=1;shadow=0;dashed=0;html=1;strokeColor=none;labelPosition=center;verticalLabelPosition=bottom;verticalAlign=top;align=center;shape=mxgraph.mscae.enterprise.code_file;fillColor=#535E80;" parent="1" vertex="1">
          <mxGeometry x="249.91000000000003" y="-505" width="89.18" height="91" as="geometry" />
        </mxCell>
        <mxCell id="ZfyCddCFMZxiEYEglCBR-1" value="&lt;font color=&quot;#333333&quot; face=&quot;open sans, clear sans, helvetica neue, helvetica, arial, sans-serif&quot;&gt;&lt;span style=&quot;font-size: 18px&quot;&gt;tcp_sendmsg 逻辑&lt;/span&gt;&lt;/font&gt;" style="text;html=1;strokeColor=none;fillColor=none;align=center;verticalAlign=middle;whiteSpace=wrap;rounded=0;" parent="1" vertex="1">
          <mxGeometry x="106" y="-91" width="156" height="48" as="geometry" />
        </mxCell>
        <mxCell id="ZfyCddCFMZxiEYEglCBR-2" value="1" style="rounded=1;whiteSpace=wrap;html=1;fillColor=#9AC7BF;strokeWidth=1;" parent="1" vertex="1">
          <mxGeometry x="333" y="-182" width="16" height="42" as="geometry" />
        </mxCell>
        <mxCell id="ZfyCddCFMZxiEYEglCBR-3" value="&lt;font color=&quot;#333333&quot; face=&quot;open sans, clear sans, helvetica neue, helvetica, arial, sans-serif&quot;&gt;&lt;span style=&quot;font-size: 18px&quot;&gt;接收缓冲区&lt;/span&gt;&lt;/font&gt;" style="text;html=1;strokeColor=none;fillColor=none;align=center;verticalAlign=middle;whiteSpace=wrap;rounded=0;" parent="1" vertex="1">
          <mxGeometry x="236" y="-134" width="110" height="43" as="geometry" />
        </mxCell>
        <mxCell id="ZfyCddCFMZxiEYEglCBR-4" value="2" style="rounded=1;whiteSpace=wrap;html=1;fillColor=#9AC7BF;" parent="1" vertex="1">
          <mxGeometry x="316" y="-182" width="16" height="42" as="geometry" />
        </mxCell>
        <mxCell id="ZfyCddCFMZxiEYEglCBR-5" value="3" style="rounded=1;whiteSpace=wrap;html=1;fillColor=#9AC7BF;" parent="1" vertex="1">
          <mxGeometry x="299" y="-182" width="16" height="42" as="geometry" />
        </mxCell>
        <mxCell id="ZfyCddCFMZxiEYEglCBR-6" value="4" style="rounded=1;whiteSpace=wrap;html=1;fillColor=#9AC7BF;" parent="1" vertex="1">
          <mxGeometry x="282" y="-182" width="16" height="42" as="geometry" />
        </mxCell>
        <mxCell id="222Te1zxGotTQ1m0-dcR-4" value="" style="curved=1;endArrow=classic;html=1;strokeColor=#535E80;strokeWidth=5;dashed=1;exitX=1;exitY=0.5;exitDx=0;exitDy=0;" parent="1" source="ZfyCddCFMZxiEYEglCBR-8" edge="1">
          <mxGeometry width="50" height="50" relative="1" as="geometry">
            <mxPoint x="198.5" y="-422" as="sourcePoint" />
            <mxPoint x="223.5" y="-161" as="targetPoint" />
            <Array as="points">
              <mxPoint x="175.5" y="-406.5" />
              <mxPoint x="144.5" y="-336.5" />
              <mxPoint x="144.5" y="-241.5" />
              <mxPoint x="189.5" y="-171.5" />
            </Array>
          </mxGeometry>
        </mxCell>
        <mxCell id="ZfyCddCFMZxiEYEglCBR-8" value="&lt;font style=&quot;font-size: 18px&quot;&gt;1. 执行close()&lt;/font&gt;" style="text;html=1;strokeColor=none;fillColor=none;align=center;verticalAlign=middle;whiteSpace=wrap;rounded=0;" parent="1" vertex="1">
          <mxGeometry x="83" y="-459" width="144" height="48" as="geometry" />
        </mxCell>
        <mxCell id="ZfyCddCFMZxiEYEglCBR-9" value="&lt;font style=&quot;font-size: 18px&quot;&gt;2. 接收缓冲区有数据&lt;/font&gt;" style="text;html=1;strokeColor=none;fillColor=none;align=center;verticalAlign=middle;whiteSpace=wrap;rounded=0;" parent="1" vertex="1">
          <mxGeometry x="208" y="-240" width="174" height="48" as="geometry" />
        </mxCell>
        <mxCell id="ZfyCddCFMZxiEYEglCBR-10" value="head" style="text;html=1;strokeColor=none;fillColor=none;align=center;verticalAlign=middle;whiteSpace=wrap;rounded=0;" parent="1" vertex="1">
          <mxGeometry x="352" y="-174" width="35" height="20" as="geometry" />
        </mxCell>
        <mxCell id="ZfyCddCFMZxiEYEglCBR-11" value="&lt;font style=&quot;font-size: 18px&quot;&gt;6. close()返回&lt;/font&gt;" style="text;html=1;strokeColor=none;fillColor=none;align=center;verticalAlign=middle;whiteSpace=wrap;rounded=0;" parent="1" vertex="1">
          <mxGeometry x="973" y="-459" width="144" height="48" as="geometry" />
        </mxCell>
        <mxCell id="ijSoyV1o0yViyPh6vLqH-2" value="5" style="rounded=1;whiteSpace=wrap;html=1;fillColor=#9AC7BF;" parent="1" vertex="1">
          <mxGeometry x="265" y="-182" width="16" height="42" as="geometry" />
        </mxCell>
        <mxCell id="ijSoyV1o0yViyPh6vLqH-3" value="6" style="rounded=1;whiteSpace=wrap;html=1;fillColor=#9AC7BF;" parent="1" vertex="1">
          <mxGeometry x="248" y="-182" width="16" height="42" as="geometry" />
        </mxCell>
        <mxCell id="ijSoyV1o0yViyPh6vLqH-4" value="7" style="rounded=1;whiteSpace=wrap;html=1;fillColor=#9AC7BF;" parent="1" vertex="1">
          <mxGeometry x="231" y="-182" width="16" height="42" as="geometry" />
        </mxCell>
        <mxCell id="ijSoyV1o0yViyPh6vLqH-8" value="&lt;font style=&quot;font-size: 18px&quot;&gt;3. 清空缓冲区数据&lt;/font&gt;" style="text;html=1;strokeColor=none;fillColor=none;align=center;verticalAlign=middle;whiteSpace=wrap;rounded=0;" parent="1" vertex="1">
          <mxGeometry x="399" y="-192" width="149" height="48" as="geometry" />
        </mxCell>
        <mxCell id="ijSoyV1o0yViyPh6vLqH-9" value="" style="rounded=1;whiteSpace=wrap;html=1;dashed=1;strokeWidth=5;fillColor=none;" parent="1" vertex="1">
          <mxGeometry x="654" y="-364" width="528" height="329" as="geometry" />
        </mxCell>
        <mxCell id="ijSoyV1o0yViyPh6vLqH-10" value="" style="rounded=1;whiteSpace=wrap;html=1;strokeColor=none;fontSize=18;labelBackgroundColor=none;fillColor=#E6D7C2;" parent="1" vertex="1">
          <mxGeometry x="717" y="-266" width="400" height="217" as="geometry" />
        </mxCell>
        <mxCell id="ijSoyV1o0yViyPh6vLqH-11" value="" style="rounded=1;whiteSpace=wrap;html=1;fillColor=#EFF1F3;" parent="1" vertex="1">
          <mxGeometry x="853" y="-182" width="120" height="42" as="geometry" />
        </mxCell>
        <mxCell id="ijSoyV1o0yViyPh6vLqH-13" value="&lt;font style=&quot;font-size: 18px&quot;&gt;socket&amp;nbsp; send()&lt;/font&gt;" style="rounded=1;whiteSpace=wrap;html=1;strokeColor=none;labelBackgroundColor=none;fillColor=#FDD276;" parent="1" vertex="1">
          <mxGeometry x="676" y="-404" width="483" height="88" as="geometry" />
        </mxCell>
        <mxCell id="ijSoyV1o0yViyPh6vLqH-14" value="&lt;font style=&quot;font-size: 24px&quot;&gt;用户态&lt;/font&gt;" style="text;html=1;strokeColor=none;fillColor=none;align=center;verticalAlign=middle;whiteSpace=wrap;rounded=0;dashed=1;" parent="1" vertex="1">
          <mxGeometry x="657" y="-495" width="132.5" height="20" as="geometry" />
        </mxCell>
        <mxCell id="ijSoyV1o0yViyPh6vLqH-15" value="&lt;font style=&quot;font-size: 24px&quot;&gt;内核态&lt;/font&gt;" style="text;html=1;strokeColor=none;align=center;verticalAlign=middle;whiteSpace=wrap;rounded=0;dashed=1;labelBackgroundColor=none;" parent="1" vertex="1">
          <mxGeometry x="672.25" y="-298" width="102" height="20" as="geometry" />
        </mxCell>
        <mxCell id="ijSoyV1o0yViyPh6vLqH-16" value="" style="aspect=fixed;pointerEvents=1;shadow=0;dashed=0;html=1;strokeColor=none;labelPosition=center;verticalLabelPosition=bottom;verticalAlign=top;align=center;shape=mxgraph.mscae.enterprise.code_file;fillColor=#535E80;" parent="1" vertex="1">
          <mxGeometry x="872.9100000000001" y="-505" width="89.18" height="91" as="geometry" />
        </mxCell>
        <mxCell id="ijSoyV1o0yViyPh6vLqH-17" value="&lt;font color=&quot;#333333&quot; face=&quot;open sans, clear sans, helvetica neue, helvetica, arial, sans-serif&quot;&gt;&lt;span style=&quot;font-size: 18px&quot;&gt;tcp_sendmsg 逻辑&lt;/span&gt;&lt;/font&gt;" style="text;html=1;strokeColor=none;fillColor=none;align=center;verticalAlign=middle;whiteSpace=wrap;rounded=0;" parent="1" vertex="1">
          <mxGeometry x="729" y="-91" width="156" height="48" as="geometry" />
        </mxCell>
        <mxCell id="ijSoyV1o0yViyPh6vLqH-18" value="RST" style="rounded=1;whiteSpace=wrap;html=1;fillColor=#F19C99;strokeWidth=1;" parent="1" vertex="1">
          <mxGeometry x="1032" y="-117" width="35" height="42" as="geometry" />
        </mxCell>
        <mxCell id="ijSoyV1o0yViyPh6vLqH-19" value="&lt;font color=&quot;#333333&quot; face=&quot;open sans, clear sans, helvetica neue, helvetica, arial, sans-serif&quot;&gt;&lt;span style=&quot;font-size: 18px&quot;&gt;接收缓冲区&lt;/span&gt;&lt;/font&gt;" style="text;html=1;strokeColor=none;fillColor=none;align=center;verticalAlign=middle;whiteSpace=wrap;rounded=0;" parent="1" vertex="1">
          <mxGeometry x="859" y="-134" width="110" height="43" as="geometry" />
        </mxCell>
        <mxCell id="ijSoyV1o0yViyPh6vLqH-25" value="&lt;font style=&quot;font-size: 18px&quot;&gt;4. 缓冲区数据已空&lt;/font&gt;" style="text;html=1;strokeColor=none;fillColor=none;align=center;verticalAlign=middle;whiteSpace=wrap;rounded=0;" parent="1" vertex="1">
          <mxGeometry x="819" y="-240" width="161" height="48" as="geometry" />
        </mxCell>
        <mxCell id="ijSoyV1o0yViyPh6vLqH-26" value="head" style="text;html=1;strokeColor=none;fillColor=none;align=center;verticalAlign=middle;whiteSpace=wrap;rounded=0;" parent="1" vertex="1">
          <mxGeometry x="975" y="-174" width="35" height="20" as="geometry" />
        </mxCell>
        <mxCell id="ijSoyV1o0yViyPh6vLqH-34" value="" style="shape=flexArrow;endArrow=classic;html=1;rounded=0;strokeColor=none;fillColor=#67AB9F;width=17.297297297297295;endSize=10.108108108108107;" parent="1" edge="1">
          <mxGeometry width="50" height="50" relative="1" as="geometry">
            <mxPoint x="578" y="-293" as="sourcePoint" />
            <mxPoint x="636" y="-293" as="targetPoint" />
          </mxGeometry>
        </mxCell>
        <mxCell id="ijSoyV1o0yViyPh6vLqH-36" value="" style="curved=1;endArrow=none;html=1;strokeColor=#535E80;strokeWidth=5;dashed=1;startArrow=classic;startFill=1;endFill=0;" parent="1" edge="1">
          <mxGeometry width="50" height="50" relative="1" as="geometry">
            <mxPoint x="992" y="-414" as="sourcePoint" />
            <mxPoint x="1008" y="-170" as="targetPoint" />
            <Array as="points">
              <mxPoint x="1030" y="-399" />
              <mxPoint x="1057" y="-360" />
              <mxPoint x="1062" y="-271" />
              <mxPoint x="1037" y="-200" />
            </Array>
          </mxGeometry>
        </mxCell>
        <mxCell id="vXGvxChS8rTjzBY60vgr-1" value="" style="shape=image;verticalLabelPosition=bottom;labelBackgroundColor=default;verticalAlign=top;aspect=fixed;imageAspect=0;image=data:image/svg+xml,PHN2ZyB4bWxuczp4bGluaz0iaHR0cDovL3d3dy53My5vcmcvMTk5OS94bGluayIgeG1sbnM9Imh0dHA6Ly93d3cudzMub3JnLzIwMDAvc3ZnIiBoZWlnaHQ9IjEyOCIgd2lkdGg9IjEyOCIgdmVyc2lvbj0iMS4xIiB2aWV3Qm94PSIwIDAgMTAyNCAxMDI0IiBjbGFzcz0iaWNvbiI+PHBhdGggZmlsbD0iIzUzNUU4MCIgZD0iTTgzMiAxOTJIMTcwLjY2NjY2N1YxMzguNjY2NjY3QzE3MC42NjY2NjcgMTIxLjYgMTU1LjczMzMzMyAxMDYuNjY2NjY3IDEzOC42NjY2NjcgMTA2LjY2NjY2N1MxMDYuNjY2NjY3IDEyMS42IDEwNi42NjY2NjcgMTM4LjY2NjY2N3Y3NDYuNjY2NjY2YzAgMTcuMDY2NjY3IDE0LjkzMzMzMyAzMiAzMiAzMlMxNzAuNjY2NjY3IDkwMi40IDE3MC42NjY2NjcgODg1LjMzMzMzM1Y3NjhoMTA2LjY2NjY2NnY0Mi42NjY2NjdjMCAyMy40NjY2NjcgMTkuMiA0Mi42NjY2NjcgNDIuNjY2NjY3IDQyLjY2NjY2Nmg0MjYuNjY2NjY3YzIzLjQ2NjY2NyAwIDQyLjY2NjY2Ny0xOS4yIDQyLjY2NjY2Ni00Mi42NjY2NjZ2LTQyLjY2NjY2N2g0Mi42NjY2NjdjNDYuOTMzMzMzIDAgODUuMzMzMzMzLTM4LjQgODUuMzMzMzMzLTg1LjMzMzMzM1YyNzcuMzMzMzMzYzAtNDYuOTMzMzMzLTM4LjQtODUuMzMzMzMzLTg1LjMzMzMzMy04NS4zMzMzMzN6TTQwNS4zMzMzMzMgNzQ2LjY2NjY2N2MwIDE3LjA2NjY2Ny0xNC45MzMzMzMgMzItMzIgMzJTMzQxLjMzMzMzMyA3NjMuNzMzMzMzIDM0MS4zMzMzMzMgNzQ2LjY2NjY2N3YtNDIuNjY2NjY3YzAtMTcuMDY2NjY3IDE0LjkzMzMzMy0zMiAzMi0zMnMzMiAxNC45MzMzMzMgMzIgMzJ2NDIuNjY2NjY3eiBtMTA2LjY2NjY2NyAwYzAgMTcuMDY2NjY3LTE0LjkzMzMzMyAzMi0zMiAzMlM0NDggNzYzLjczMzMzMyA0NDggNzQ2LjY2NjY2N3YtNDIuNjY2NjY3YzAtMTcuMDY2NjY3IDE0LjkzMzMzMy0zMiAzMi0zMnMzMiAxNC45MzMzMzMgMzIgMzJ2NDIuNjY2NjY3eiBtMC0xNzAuNjY2NjY3Yy0xNy4wNjY2NjcgMC0zMi0xNC45MzMzMzMtMzItMzIgMC0xMi44IDguNTMzMzMzLTIzLjQ2NjY2NyAxOS4yLTI5Ljg2NjY2NyAyLjEzMzMzMyAwIDQuMjY2NjY3LTIuMTMzMzMzIDQuMjY2NjY3LTIuMTMzMzMzaDEyLjhjMi4xMzMzMzMgMCA0LjI2NjY2NyAwIDQuMjY2NjY2IDIuMTMzMzMzIDEwLjY2NjY2NyA0LjI2NjY2NyAxOS4yIDE3LjA2NjY2NyAxOS4yIDI5Ljg2NjY2NyA0LjI2NjY2NyAxNy4wNjY2NjctMTAuNjY2NjY3IDMyLTI3LjczMzMzMyAzMnogbTEwNi42NjY2NjcgMTcwLjY2NjY2N2MwIDE3LjA2NjY2Ny0xNC45MzMzMzMgMzItMzIgMzJTNTU0LjY2NjY2NyA3NjMuNzMzMzMzIDU1NC42NjY2NjcgNzQ2LjY2NjY2N3YtNDIuNjY2NjY3YzAtMTcuMDY2NjY3IDE0LjkzMzMzMy0zMiAzMi0zMnMzMiAxNC45MzMzMzMgMzIgMzJ2NDIuNjY2NjY3eiBtLTMyLTI0NS4zMzMzMzRjLTguNTMzMzMzIDAtMTcuMDY2NjY3LTQuMjY2NjY3LTIzLjQ2NjY2Ny04LjUzMzMzMy0xMi44LTEyLjgtMzItMjEuMzMzMzMzLTUzLjMzMzMzMy0yMS4zMzMzMzNzLTM4LjQgOC41MzMzMzMtNTMuMzMzMzM0IDIzLjQ2NjY2NmMtNi40IDYuNC0xMi44IDguNTMzMzMzLTIzLjQ2NjY2NiA4LjUzMzMzNC0xNy4wNjY2NjcgMC0zMi0xNC45MzMzMzMtMzItMzIgMC04LjUzMzMzMyA0LjI2NjY2Ny0xNy4wNjY2NjcgOC41MzMzMzMtMjMuNDY2NjY3IDI1LjYtMjUuNiA1OS43MzMzMzMtNDAuNTMzMzMzIDk4LjEzMzMzMy00MC41MzMzMzNzNzIuNTMzMzMzIDE0LjkzMzMzMyA5OC4xMzMzMzQgNDAuNTMzMzMzYzYuNCA2LjQgOC41MzMzMzMgMTIuOCA4LjUzMzMzMyAyMS4zMzMzMzMgNC4yNjY2NjcgMTcuMDY2NjY3LTEwLjY2NjY2NyAzMi0yNy43MzMzMzMgMzJ6IG01My4zMzMzMzMtODUuMzMzMzMzQzYwOCAzODQgNTYxLjA2NjY2NyAzNjIuNjY2NjY3IDUxMiAzNjIuNjY2NjY3cy05NiAyMS4zMzMzMzMtMTI4IDUzLjMzMzMzM2MtNi40IDYuNC0xNC45MzMzMzMgMTAuNjY2NjY3LTIzLjQ2NjY2NyAxMC42NjY2NjctMTcuMDY2NjY3IDAtMzItMTQuOTMzMzMzLTMyLTMyIDAtOC41MzMzMzMgNC4yNjY2NjctMTcuMDY2NjY3IDEwLjY2NjY2Ny0yMy40NjY2NjdDMzg0IDMyNi40IDQ0My43MzMzMzMgMjk4LjY2NjY2NyA1MTIgMjk4LjY2NjY2N2M2Ni4xMzMzMzMgMCAxMjUuODY2NjY3IDI1LjYgMTY4LjUzMzMzMyA2OC4yNjY2NjZsMi4xMzMzMzQgMi4xMzMzMzRjNC4yNjY2NjcgNi40IDguNTMzMzMzIDEyLjggOC41MzMzMzMgMjEuMzMzMzMzIDAgMTcuMDY2NjY3LTE0LjkzMzMzMyAzMi0zMiAzMi02LjQgMi4xMzMzMzMtMTIuOC0yLjEzMzMzMy0xOS4yLTYuNHpNNzI1LjMzMzMzMyA3NDYuNjY2NjY3YzAgMTcuMDY2NjY3LTE0LjkzMzMzMyAzMi0zMiAzMlM2NjEuMzMzMzMzIDc2My43MzMzMzMgNjYxLjMzMzMzMyA3NDYuNjY2NjY3di00Mi42NjY2NjdjMC0xNy4wNjY2NjcgMTQuOTMzMzMzLTMyIDMyLTMyczMyIDE0LjkzMzMzMyAzMiAzMnY0Mi42NjY2Njd6Ii8+PC9zdmc+;" vertex="1" parent="1">
          <mxGeometry x="480" y="-160" width="128" height="128" as="geometry" />
        </mxCell>
        <mxCell id="vXGvxChS8rTjzBY60vgr-2" value="" style="shape=image;verticalLabelPosition=bottom;labelBackgroundColor=default;verticalAlign=top;aspect=fixed;imageAspect=0;image=data:image/svg+xml,PHN2ZyB4bWxuczp4bGluaz0iaHR0cDovL3d3dy53My5vcmcvMTk5OS94bGluayIgeG1sbnM9Imh0dHA6Ly93d3cudzMub3JnLzIwMDAvc3ZnIiBoZWlnaHQ9IjEyOCIgd2lkdGg9IjEyOCIgdmVyc2lvbj0iMS4xIiB2aWV3Qm94PSIwIDAgMTAyNCAxMDI0IiBjbGFzcz0iaWNvbiI+PHBhdGggZmlsbD0iIzUzNUU4MCIgZD0iTTgzMiAxOTJIMTcwLjY2NjY2N1YxMzguNjY2NjY3QzE3MC42NjY2NjcgMTIxLjYgMTU1LjczMzMzMyAxMDYuNjY2NjY3IDEzOC42NjY2NjcgMTA2LjY2NjY2N1MxMDYuNjY2NjY3IDEyMS42IDEwNi42NjY2NjcgMTM4LjY2NjY2N3Y3NDYuNjY2NjY2YzAgMTcuMDY2NjY3IDE0LjkzMzMzMyAzMiAzMiAzMlMxNzAuNjY2NjY3IDkwMi40IDE3MC42NjY2NjcgODg1LjMzMzMzM1Y3NjhoMTA2LjY2NjY2NnY0Mi42NjY2NjdjMCAyMy40NjY2NjcgMTkuMiA0Mi42NjY2NjcgNDIuNjY2NjY3IDQyLjY2NjY2Nmg0MjYuNjY2NjY3YzIzLjQ2NjY2NyAwIDQyLjY2NjY2Ny0xOS4yIDQyLjY2NjY2Ni00Mi42NjY2NjZ2LTQyLjY2NjY2N2g0Mi42NjY2NjdjNDYuOTMzMzMzIDAgODUuMzMzMzMzLTM4LjQgODUuMzMzMzMzLTg1LjMzMzMzM1YyNzcuMzMzMzMzYzAtNDYuOTMzMzMzLTM4LjQtODUuMzMzMzMzLTg1LjMzMzMzMy04NS4zMzMzMzN6TTQwNS4zMzMzMzMgNzQ2LjY2NjY2N2MwIDE3LjA2NjY2Ny0xNC45MzMzMzMgMzItMzIgMzJTMzQxLjMzMzMzMyA3NjMuNzMzMzMzIDM0MS4zMzMzMzMgNzQ2LjY2NjY2N3YtNDIuNjY2NjY3YzAtMTcuMDY2NjY3IDE0LjkzMzMzMy0zMiAzMi0zMnMzMiAxNC45MzMzMzMgMzIgMzJ2NDIuNjY2NjY3eiBtMTA2LjY2NjY2NyAwYzAgMTcuMDY2NjY3LTE0LjkzMzMzMyAzMi0zMiAzMlM0NDggNzYzLjczMzMzMyA0NDggNzQ2LjY2NjY2N3YtNDIuNjY2NjY3YzAtMTcuMDY2NjY3IDE0LjkzMzMzMy0zMiAzMi0zMnMzMiAxNC45MzMzMzMgMzIgMzJ2NDIuNjY2NjY3eiBtMC0xNzAuNjY2NjY3Yy0xNy4wNjY2NjcgMC0zMi0xNC45MzMzMzMtMzItMzIgMC0xMi44IDguNTMzMzMzLTIzLjQ2NjY2NyAxOS4yLTI5Ljg2NjY2NyAyLjEzMzMzMyAwIDQuMjY2NjY3LTIuMTMzMzMzIDQuMjY2NjY3LTIuMTMzMzMzaDEyLjhjMi4xMzMzMzMgMCA0LjI2NjY2NyAwIDQuMjY2NjY2IDIuMTMzMzMzIDEwLjY2NjY2NyA0LjI2NjY2NyAxOS4yIDE3LjA2NjY2NyAxOS4yIDI5Ljg2NjY2NyA0LjI2NjY2NyAxNy4wNjY2NjctMTAuNjY2NjY3IDMyLTI3LjczMzMzMyAzMnogbTEwNi42NjY2NjcgMTcwLjY2NjY2N2MwIDE3LjA2NjY2Ny0xNC45MzMzMzMgMzItMzIgMzJTNTU0LjY2NjY2NyA3NjMuNzMzMzMzIDU1NC42NjY2NjcgNzQ2LjY2NjY2N3YtNDIuNjY2NjY3YzAtMTcuMDY2NjY3IDE0LjkzMzMzMy0zMiAzMi0zMnMzMiAxNC45MzMzMzMgMzIgMzJ2NDIuNjY2NjY3eiBtLTMyLTI0NS4zMzMzMzRjLTguNTMzMzMzIDAtMTcuMDY2NjY3LTQuMjY2NjY3LTIzLjQ2NjY2Ny04LjUzMzMzMy0xMi44LTEyLjgtMzItMjEuMzMzMzMzLTUzLjMzMzMzMy0yMS4zMzMzMzNzLTM4LjQgOC41MzMzMzMtNTMuMzMzMzM0IDIzLjQ2NjY2NmMtNi40IDYuNC0xMi44IDguNTMzMzMzLTIzLjQ2NjY2NiA4LjUzMzMzNC0xNy4wNjY2NjcgMC0zMi0xNC45MzMzMzMtMzItMzIgMC04LjUzMzMzMyA0LjI2NjY2Ny0xNy4wNjY2NjcgOC41MzMzMzMtMjMuNDY2NjY3IDI1LjYtMjUuNiA1OS43MzMzMzMtNDAuNTMzMzMzIDk4LjEzMzMzMy00MC41MzMzMzNzNzIuNTMzMzMzIDE0LjkzMzMzMyA5OC4xMzMzMzQgNDAuNTMzMzMzYzYuNCA2LjQgOC41MzMzMzMgMTIuOCA4LjUzMzMzMyAyMS4zMzMzMzMgNC4yNjY2NjcgMTcuMDY2NjY3LTEwLjY2NjY2NyAzMi0yNy43MzMzMzMgMzJ6IG01My4zMzMzMzMtODUuMzMzMzMzQzYwOCAzODQgNTYxLjA2NjY2NyAzNjIuNjY2NjY3IDUxMiAzNjIuNjY2NjY3cy05NiAyMS4zMzMzMzMtMTI4IDUzLjMzMzMzM2MtNi40IDYuNC0xNC45MzMzMzMgMTAuNjY2NjY3LTIzLjQ2NjY2NyAxMC42NjY2NjctMTcuMDY2NjY3IDAtMzItMTQuOTMzMzMzLTMyLTMyIDAtOC41MzMzMzMgNC4yNjY2NjctMTcuMDY2NjY3IDEwLjY2NjY2Ny0yMy40NjY2NjdDMzg0IDMyNi40IDQ0My43MzMzMzMgMjk4LjY2NjY2NyA1MTIgMjk4LjY2NjY2N2M2Ni4xMzMzMzMgMCAxMjUuODY2NjY3IDI1LjYgMTY4LjUzMzMzMyA2OC4yNjY2NjZsMi4xMzMzMzQgMi4xMzMzMzRjNC4yNjY2NjcgNi40IDguNTMzMzMzIDEyLjggOC41MzMzMzMgMjEuMzMzMzMzIDAgMTcuMDY2NjY3LTE0LjkzMzMzMyAzMi0zMiAzMi02LjQgMi4xMzMzMzMtMTIuOC0yLjEzMzMzMy0xOS4yLTYuNHpNNzI1LjMzMzMzMyA3NDYuNjY2NjY3YzAgMTcuMDY2NjY3LTE0LjkzMzMzMyAzMi0zMiAzMlM2NjEuMzMzMzMzIDc2My43MzMzMzMgNjYxLjMzMzMzMyA3NDYuNjY2NjY3di00Mi42NjY2NjdjMC0xNy4wNjY2NjcgMTQuOTMzMzMzLTMyIDMyLTMyczMyIDE0LjkzMzMzMyAzMiAzMnY0Mi42NjY2Njd6Ii8+PC9zdmc+;" vertex="1" parent="1">
          <mxGeometry x="1104" y="-160" width="128" height="128" as="geometry" />
        </mxCell>
        <mxCell id="vXGvxChS8rTjzBY60vgr-3" value="&lt;font style=&quot;font-size: 18px&quot;&gt;5. 发送RST给远端&lt;/font&gt;" style="text;html=1;strokeColor=none;fillColor=none;align=center;verticalAlign=middle;whiteSpace=wrap;rounded=0;" vertex="1" parent="1">
          <mxGeometry x="1021" y="-181.5" width="161" height="48" as="geometry" />
        </mxCell>
        <mxCell id="vXGvxChS8rTjzBY60vgr-4" value="" style="shape=flexArrow;endArrow=classic;html=1;rounded=0;strokeColor=none;fillColor=#F19C99;width=8.307692307692308;endSize=5.821538461538462;" edge="1" parent="1">
          <mxGeometry width="50" height="50" relative="1" as="geometry">
            <mxPoint x="1072" y="-96.15" as="sourcePoint" />
            <mxPoint x="1110" y="-96.15" as="targetPoint" />
          </mxGeometry>
        </mxCell>
      </root>
    </mxGraphModel>
  </diagram>
</mxfile>
